<?xml version="1.0" standalone="no"?>
<!DOCTYPE svg PUBLIC "-//W3C//DTD SVG 20010904//EN"
 "http://www.w3.org/TR/2001/REC-SVG-20010904/DTD/svg10.dtd">
<svg version="1.0" xmlns="http://www.w3.org/2000/svg"
 width="848.000000pt" height="848.000000pt" viewBox="0 0 848.000000 848.000000"
 preserveAspectRatio="xMidYMid meet">
<metadata>
Created by potrace 1.14, written by Peter Selinger 2001-2017
</metadata>
<g transform="translate(0.000000,848.000000) scale(0.100000,-0.100000)"
fill="#000000" stroke="none">
<path d="M0 7712 l0 -288 208 0 c197 -1 345 -9 363 -20 5 -3 19 -7 31 -10 13
-3 28 -6 33 -7 39 -9 133 -67 178 -110 81 -77 142 -178 230 -377 16 -37 96
-252 153 -410 19 -52 38 -104 43 -115 5 -11 19 -47 31 -80 12 -33 26 -69 30
-80 27 -67 39 -105 32 -105 -4 0 -2 -4 3 -8 6 -4 40 -86 75 -182 35 -96 67
-179 70 -185 4 -5 11 -23 15 -40 5 -16 9 -32 10 -35 1 -3 8 -21 17 -40 8 -19
21 -53 28 -75 7 -22 18 -53 25 -70 7 -16 38 -100 70 -185 31 -85 60 -165 66
-178 5 -13 25 -67 45 -120 53 -145 75 -205 84 -227 18 -44 71 -187 120 -320
47 -128 80 -217 100 -270 5 -11 18 -47 30 -80 12 -33 25 -69 30 -80 29 -76 45
-117 95 -255 31 -85 61 -164 66 -175 14 -31 70 -188 74 -207 2 -9 11 -30 20
-48 9 -18 18 -39 20 -48 2 -10 9 -30 16 -47 6 -16 13 -34 15 -40 2 -10 57
-159 73 -200 5 -11 9 -24 10 -30 2 -5 7 -16 13 -22 6 -7 7 -13 4 -13 -4 0 -1
-10 6 -22 6 -13 13 -27 14 -33 1 -5 36 -100 77 -210 150 -400 199 -530 201
-540 2 -5 7 -19 11 -30 11 -28 53 -139 77 -205 11 -30 24 -64 28 -75 38 -97
50 -130 50 -141 0 -8 4 -14 8 -14 5 0 9 -6 9 -14 0 -7 9 -38 20 -67 31 -81 82
-217 105 -279 11 -30 24 -64 28 -75 5 -11 25 -65 45 -120 20 -55 42 -116 50
-135 7 -19 28 -73 45 -120 17 -47 35 -94 39 -105 21 -47 55 -151 53 -157 -1
-5 2 -8 6 -8 5 0 15 -22 22 -50 l14 -50 783 0 c443 0 783 4 783 9 0 5 7 25 15
45 8 20 15 37 15 38 -1 2 11 35 26 73 15 39 27 76 27 83 0 6 4 12 9 12 4 0 8
6 8 12 0 12 27 88 127 353 24 66 46 128 48 139 3 10 9 24 16 32 6 8 8 14 5 14
-4 0 -1 10 6 23 6 12 13 27 14 32 2 10 78 220 94 260 4 11 18 47 30 80 12 33
27 71 33 85 5 14 11 30 13 35 2 10 109 301 127 345 6 14 11 30 12 36 2 6 32
89 68 185 36 96 91 244 122 329 31 85 67 182 80 215 13 33 27 72 30 88 4 15
11 30 16 33 5 3 9 14 9 25 0 11 5 30 12 42 7 12 13 27 14 32 2 8 51 142 71
195 3 8 7 20 9 25 1 6 30 82 64 170 34 88 65 172 70 186 6 20 80 223 140 384
4 11 8 22 8 25 0 6 40 108 52 135 5 11 20 52 33 90 14 39 48 133 77 210 52
142 59 162 60 170 1 2 7 17 15 32 8 14 12 30 9 35 -3 4 0 8 7 8 7 0 10 3 7 6
-4 3 6 36 21 72 15 37 29 70 30 74 4 17 13 44 22 63 4 11 27 72 49 135 23 63
51 140 63 170 12 30 22 60 24 65 2 10 43 122 118 320 5 11 9 25 10 30 2 6 16
46 33 90 17 44 61 161 97 260 36 99 93 254 127 345 33 91 67 180 75 199 8 18
17 41 18 50 2 9 4 17 5 19 2 1 3 5 5 10 1 4 5 16 10 27 17 44 66 176 100 270
56 152 83 203 139 260 57 58 96 84 172 114 96 37 193 46 507 46 l257 -1 0 288
0 288 -1581 0 -1581 0 6 -26 c4 -16 3 -23 -3 -19 -6 3 -9 0 -6 -7 8 -20 11
-218 3 -218 -3 0 -5 -8 -3 -17 13 -68 14 -84 3 -77 -7 4 -8 3 -4 -4 4 -7 7
-56 8 -110 l0 -98 227 1 c253 0 363 -7 466 -31 123 -29 188 -77 198 -149 4
-30 -17 -148 -30 -169 -4 -6 -8 -13 -9 -16 0 -3 -3 -12 -7 -20 -3 -8 -20 -58
-38 -110 -17 -52 -40 -114 -50 -137 -10 -22 -15 -44 -12 -47 3 -3 1 -11 -5
-18 -5 -7 -25 -56 -42 -108 -18 -52 -38 -108 -45 -125 -8 -16 -18 -46 -24 -65
-5 -19 -31 -96 -59 -170 -27 -74 -61 -171 -77 -215 -15 -44 -32 -91 -38 -105
-5 -14 -11 -31 -13 -37 -1 -7 -14 -44 -29 -83 -15 -39 -28 -76 -29 -83 -2 -6
-6 -19 -9 -27 -22 -52 -117 -327 -117 -337 0 -7 -4 -13 -8 -13 -4 0 -8 -8 -9
-17 -1 -10 -7 -31 -14 -48 -7 -16 -13 -34 -15 -40 -3 -13 -63 -184 -74 -210
-10 -26 -50 -137 -150 -420 -44 -126 -85 -239 -89 -250 -5 -11 -12 -29 -14
-40 -3 -11 -31 -90 -62 -175 -31 -85 -67 -189 -81 -230 -14 -41 -31 -88 -39
-105 -7 -16 -23 -61 -35 -100 -13 -38 -28 -76 -34 -84 -6 -8 -10 -17 -9 -20 3
-6 -36 -129 -46 -146 -3 -5 -6 -14 -8 -20 -3 -18 -82 -235 -88 -245 -3 -6 -8
-18 -10 -27 -2 -10 -25 -76 -50 -148 -26 -71 -67 -188 -92 -260 -24 -71 -51
-144 -59 -162 -8 -17 -14 -38 -14 -46 0 -9 -4 -19 -10 -22 -6 -3 -10 -15 -10
-26 0 -10 -4 -27 -9 -37 -5 -9 -13 -26 -17 -37 -10 -27 -9 -26 -19 -59 -4 -16
-14 -41 -21 -55 -8 -14 -14 -32 -14 -40 0 -14 -14 -7 -16 7 0 4 -6 21 -13 37
-7 17 -15 42 -18 58 -3 15 -10 27 -16 27 -6 0 -8 3 -5 6 3 3 -9 47 -27 97 -18
51 -36 100 -39 110 -3 9 -9 25 -13 35 -3 9 -7 22 -9 27 -6 22 -76 221 -84 240
-5 11 -27 74 -50 140 -22 66 -45 128 -50 137 -6 10 -10 27 -10 37 0 11 -4 23
-10 26 -5 3 -10 15 -10 26 0 10 -4 27 -9 37 -10 17 -22 49 -27 67 -1 6 -6 21
-12 35 -5 14 -10 27 -11 30 0 3 -15 43 -32 90 -17 47 -35 101 -41 120 -6 19
-13 40 -16 45 -4 6 -7 15 -8 20 -1 6 -11 35 -22 65 -11 30 -34 93 -50 140 -17
47 -44 123 -60 170 -17 47 -49 139 -72 205 -23 66 -45 129 -50 140 -5 11 -18
49 -30 85 -11 36 -25 73 -30 82 -6 10 -10 26 -10 36 0 10 -4 22 -9 28 -5 5
-14 25 -19 44 -9 32 -86 250 -142 405 -11 33 -23 67 -25 75 -2 8 -16 47 -30
85 -15 39 -28 77 -31 85 -7 26 -44 134 -54 155 -12 28 -61 166 -67 190 -2 11
-8 29 -13 40 -11 27 -22 58 -26 70 -1 6 -23 69 -49 140 -26 72 -65 182 -87
245 -22 63 -53 151 -68 195 -111 313 -142 401 -144 410 -2 6 -8 23 -14 38 -7
16 -12 32 -12 37 0 5 -6 24 -14 42 -23 52 -65 170 -70 198 -3 14 -10 41 -15
60 -19 61 -14 89 24 127 19 19 39 32 45 28 5 -3 10 -2 10 3 0 8 84 34 125 38
11 1 45 5 75 9 30 4 174 8 320 9 l265 1 2 288 1 287 -1804 0 -1804 0 0 -288z"/>
</g>
</svg>
