<svg width="49" height="49" viewBox="0 0 49 49" fill="none" xmlns="http://www.w3.org/2000/svg">
<circle cx="24.5" cy="24.5" r="24.5" fill="#E9E2D9"/>
<path d="M14.9043 32H19.377C19.9629 31.987 20.5228 31.8893 21.0566 31.707C21.597 31.5247 22.0723 31.2611 22.4824 30.916C22.8861 30.5775 23.2083 30.1641 23.4492 29.6758C23.6901 29.1875 23.8073 28.6276 23.8008 27.9961C23.8008 27.5599 23.7292 27.1562 23.5859 26.7852C23.4427 26.4141 23.2474 26.0788 23 25.7793C22.7591 25.4993 22.4629 25.2552 22.1113 25.0469C21.7663 24.832 21.3984 24.679 21.0078 24.5879V24.5488C21.3594 24.4056 21.6686 24.2461 21.9355 24.0703C22.209 23.8945 22.4499 23.6797 22.6582 23.4258C22.86 23.1784 23.0163 22.8952 23.127 22.5762C23.2441 22.2507 23.3027 21.8893 23.3027 21.4922C23.3092 20.8477 23.1855 20.2943 22.9316 19.832C22.6777 19.3633 22.3392 18.9792 21.916 18.6797C21.4928 18.3802 21.0078 18.1589 20.4609 18.0156C19.9141 17.8659 19.3542 17.7878 18.7812 17.7812H14.9043V32ZM16.0664 25.1641H19.4941C19.9108 25.1771 20.3079 25.2487 20.6855 25.3789C21.0632 25.5091 21.3984 25.6914 21.6914 25.9258C21.9779 26.1732 22.2057 26.4727 22.375 26.8242C22.5443 27.1693 22.6289 27.5664 22.6289 28.0156C22.6289 28.4714 22.541 28.8815 22.3652 29.2461C22.196 29.6107 21.9616 29.9167 21.6621 30.1641C21.3691 30.418 21.0273 30.6165 20.6367 30.7598C20.2461 30.8965 19.8327 30.9681 19.3965 30.9746H16.0664V25.1641ZM16.0664 24.1484V18.8164H18.8105C19.2272 18.8229 19.6341 18.8783 20.0312 18.9824C20.4349 19.0801 20.793 19.2331 21.1055 19.4414C21.418 19.6562 21.6654 19.9297 21.8477 20.2617C22.0365 20.5938 22.1309 20.9974 22.1309 21.4727C22.1309 21.9284 22.0397 22.3223 21.8574 22.6543C21.6816 22.9798 21.444 23.2533 21.1445 23.4746C20.8451 23.696 20.5033 23.862 20.1191 23.9727C19.735 24.0833 19.3379 24.1419 18.9277 24.1484H16.0664ZM31.4082 32.1953C32.2871 32.1953 33.0586 32.0228 33.7227 31.6777C34.3867 31.3327 34.9173 30.8802 35.3145 30.3203L34.582 29.7637C34.2044 30.2324 33.752 30.5905 33.2246 30.8379C32.6973 31.0853 32.1081 31.2057 31.457 31.1992C30.8906 31.1992 30.373 31.0885 29.9043 30.8672C29.4421 30.6393 29.0482 30.3366 28.7227 29.959C28.3906 29.5879 28.1335 29.1615 27.9512 28.6797C27.7689 28.1979 27.6647 27.6771 27.6387 27.1172V26.7949H35.5488V26.082C35.5423 25.4115 35.4447 24.7832 35.2559 24.1973C35.0671 23.6048 34.7871 23.0872 34.416 22.6445C34.0449 22.2083 33.5892 21.8665 33.0488 21.6191C32.5085 21.3652 31.89 21.2383 31.1934 21.2383C30.5293 21.2383 29.9108 21.3783 29.3379 21.6582C28.765 21.9316 28.2702 22.306 27.8535 22.7812C27.4238 23.263 27.0853 23.8327 26.8379 24.4902C26.597 25.1413 26.4766 25.8411 26.4766 26.5898V27.0098C26.4766 27.7194 26.597 28.39 26.8379 29.0215C27.0788 29.6465 27.4173 30.1966 27.8535 30.6719C28.2832 31.1406 28.8008 31.5117 29.4062 31.7852C30.0117 32.0586 30.679 32.1953 31.4082 32.1953ZM31.1934 22.2441C31.6947 22.2441 32.1406 22.3418 32.5312 22.5371C32.9219 22.7259 33.2539 22.9798 33.5273 23.2988C33.7943 23.6178 34.0026 23.9889 34.1523 24.4121C34.3086 24.8353 34.3867 25.2617 34.3867 25.6914V25.7988H27.6875C27.7591 25.291 27.8926 24.819 28.0879 24.3828C28.2832 23.9466 28.5306 23.569 28.8301 23.25C29.1296 22.9375 29.4779 22.6934 29.875 22.5176C30.2721 22.3353 30.7116 22.2441 31.1934 22.2441Z" fill="black"/>
</svg>
