<svg width="81" height="81" viewBox="0 0 81 81" fill="none" xmlns="http://www.w3.org/2000/svg">
<rect x="0.818604" y="0.424805" width="80" height="80" rx="40" fill="#E9E2D9"/>
<g clip-path="url(#clip0_719_188)">
<path d="M21.3186 23.4648V54.7255L40.8186 57.3061L60.3186 54.7255V23.4648L40.8186 26.0455L21.3186 23.4648ZM22.5374 24.8861L40.2092 27.2248V55.9642L22.5374 53.6261V24.8861V24.8861ZM59.0999 53.6261L41.428 55.9648V27.2248L46.9124 26.4986V38.3111L49.9592 36.7486L53.0061 38.3111V25.693L59.0999 24.8861V53.6261ZM48.1311 26.338L51.7874 25.8542V36.2892L49.9592 35.3517L48.1311 36.2892V26.338Z" fill="#212121"/>
<path d="M25.6482 29.8037L37.2263 31.0543L37.0986 32.2975L25.5205 31.0468L25.6482 29.8037Z" fill="#212121"/>
<path d="M37.0981 38.5469L25.5201 37.2963L25.6477 36.0531L37.2258 37.3037L37.0981 38.5469Z" fill="#212121"/>
<path d="M37.0981 44.7969L25.5201 43.5463L25.6477 42.3031L37.2258 43.5537L37.0981 44.7969Z" fill="#212121"/>
<path d="M37.0981 51.0469L25.5201 49.7963L25.6477 48.5531L37.2258 49.8037L37.0981 51.0469Z" fill="#212121"/>
<path d="M44.5381 44.7969L44.4107 43.5537L55.9891 42.306L56.1165 43.5492L44.5381 44.7969Z" fill="#212121"/>
<path d="M44.5381 51.0469L44.4107 49.8037L55.9891 48.556L56.1165 49.7992L44.5381 51.0469Z" fill="#212121"/>
</g>
<defs>
<clipPath id="clip0_719_188">
<rect width="39" height="40" fill="white" transform="translate(21.3186 20.4248)"/>
</clipPath>
</defs>
</svg>
