<svg width="80" height="80" viewBox="0 0 80 80" fill="none" xmlns="http://www.w3.org/2000/svg">
<rect width="80" height="80" rx="40" fill="#E9E2D9"/>
<path d="M42.3833 43.0284H22.239C21.8768 43.0284 21.5828 42.7344 21.5828 42.3721C21.5828 42.0099 21.8768 41.7159 22.239 41.7159H42.3836C42.7458 41.7159 43.0398 42.0099 43.0398 42.3721C43.0398 42.7344 42.7458 43.0284 42.3833 43.0284ZM44.7527 38.2656H22.239C21.8768 38.2656 21.5828 37.9716 21.5828 37.6094C21.5828 37.2471 21.8768 36.9531 22.239 36.9531H44.7527C45.1149 36.9531 45.4089 37.2471 45.4089 37.6094C45.4089 37.9716 45.1149 38.2656 44.7527 38.2656Z" fill="black"/>
<path d="M41.0934 56.3995C31.8154 56.3995 24.2668 49.0278 24.2668 39.9667C24.2668 30.9065 31.8154 23.5352 41.0934 23.5352C44.9742 23.5352 48.765 24.8588 51.7667 27.262C52.0495 27.4884 52.0955 27.9015 51.869 28.1847C51.6423 28.4679 51.2295 28.5135 50.9464 28.2871C48.1763 26.0693 44.6772 24.848 41.0934 24.848C32.5389 24.848 25.5793 31.6303 25.5793 39.967C25.5793 48.3043 32.5389 55.0873 41.0934 55.0873C44.6805 55.0873 48.1793 53.8657 50.946 51.6476C51.2282 51.4212 51.641 51.4658 51.8687 51.7493C52.0951 52.0318 52.0502 52.4453 51.767 52.6723C48.7679 55.0755 44.9778 56.3995 41.0934 56.3995Z" fill="black"/>
</svg>
