<svg width="125" height="29" viewBox="0 0 125 29" fill="none" xmlns="http://www.w3.org/2000/svg">
<path d="M10.28 28.28C6.78667 28.28 4.2 27.1733 2.52 24.96C0.866667 22.7467 0.04 19.3067 0.04 14.64C0.04 10 0.88 6.56 2.56 4.32C4.26667 2.08 6.88 0.959998 10.4 0.959998C11.92 0.959998 13.28 1.18666 14.48 1.64C15.7067 2.09333 16.6533 2.72 17.32 3.52C18.0133 4.32 18.36 5.22667 18.36 6.24C18.36 7.12 18.1333 7.86667 17.68 8.48C17.2267 9.09333 16.68 9.4 16.04 9.4C15.5067 9.4 15.0267 9.25333 14.6 8.96C14.1733 8.66667 13.88 8.29333 13.72 7.84C14.2267 7.14667 14.48 6.48 14.48 5.84C14.48 5.01333 14.1067 4.36 13.36 3.88C12.6133 3.37333 11.6267 3.12 10.4 3.12C8.24 3.12 6.64 4.06667 5.6 5.96C4.56 7.82667 4.04 10.72 4.04 14.64C4.04 18.5067 4.54667 21.3467 5.56 23.16C6.6 24.9733 8.21333 25.88 10.4 25.88C11.7867 25.88 13.1333 25.56 14.44 24.92C15.7733 24.2533 16.7733 23.48 17.44 22.6L18.84 24.12C18.0133 25.1333 16.8667 26.08 15.4 26.96C13.9333 27.84 12.2267 28.28 10.28 28.28ZM25.9822 28.28C24.3289 28.28 23.0489 27.88 22.1422 27.08C21.2355 26.28 20.7822 25.16 20.7822 23.72C20.7822 21.9867 21.4222 20.6267 22.7022 19.64C23.9822 18.6267 25.8355 18.04 28.2622 17.88L31.5422 17.64V14.4C31.5422 13.0667 31.2622 12.0933 30.7022 11.48C30.1422 10.8667 29.2355 10.56 27.9822 10.56C26.9155 10.56 26.0889 10.72 25.5022 11.04C24.9422 11.36 24.6622 11.8 24.6622 12.36C24.6622 13.0533 25.0622 13.5467 25.8622 13.84C25.8622 14.4533 25.6622 14.9333 25.2622 15.28C24.8889 15.6 24.3289 15.76 23.5822 15.76C22.8889 15.76 22.3289 15.5467 21.9022 15.12C21.4755 14.6933 21.2622 14.1333 21.2622 13.44C21.2622 12.08 21.8622 11 23.0622 10.2C24.2889 9.37333 25.9289 8.96 27.9822 8.96C30.1689 8.96 31.8755 9.44 33.1022 10.4C34.3289 11.36 34.9422 12.6933 34.9422 14.4V25.56C35.1822 25.7467 35.5689 25.9467 36.1022 26.16C36.6355 26.3733 37.1822 26.5333 37.7422 26.64L37.5822 28H32.0622L31.6622 26.2C30.8355 26.9733 29.9689 27.52 29.0622 27.84C28.1555 28.1333 27.1289 28.28 25.9822 28.28ZM26.9822 26.64C27.7289 26.64 28.4622 26.4667 29.1822 26.12C29.9022 25.7467 30.6889 25.1467 31.5422 24.32V19.28L28.3422 19.56C27.0889 19.6667 26.1022 20.0667 25.3822 20.76C24.6622 21.4267 24.3022 22.2933 24.3022 23.36C24.3022 25.5467 25.1955 26.64 26.9822 26.64ZM39.7313 26.52C40.3446 26.44 40.8379 26.3333 41.2113 26.2C41.5846 26.0667 41.9713 25.84 42.3713 25.52V5.32C42.3713 4.33333 42.1713 3.66667 41.7713 3.32C41.3712 2.94666 40.6379 2.73333 39.5713 2.68L39.6913 1.48C40.7313 1.32 41.8113 1.08 42.9313 0.759998C44.0779 0.413332 44.7713 0.199999 45.0113 0.119999L45.7713 0.519999V25.52C46.4379 26.0267 47.3713 26.3867 48.5713 26.6L48.4113 28H39.5713L39.7313 26.52ZM55.6306 28.28C53.9773 28.28 52.6973 27.88 51.7906 27.08C50.884 26.28 50.4306 25.16 50.4306 23.72C50.4306 21.9867 51.0706 20.6267 52.3506 19.64C53.6306 18.6267 55.484 18.04 57.9106 17.88L61.1906 17.64V14.4C61.1906 13.0667 60.9106 12.0933 60.3506 11.48C59.7906 10.8667 58.884 10.56 57.6306 10.56C56.564 10.56 55.7373 10.72 55.1506 11.04C54.5906 11.36 54.3106 11.8 54.3106 12.36C54.3106 13.0533 54.7106 13.5467 55.5106 13.84C55.5106 14.4533 55.3106 14.9333 54.9106 15.28C54.5373 15.6 53.9773 15.76 53.2306 15.76C52.5373 15.76 51.9773 15.5467 51.5506 15.12C51.124 14.6933 50.9106 14.1333 50.9106 13.44C50.9106 12.08 51.5106 11 52.7106 10.2C53.9373 9.37333 55.5773 8.96 57.6306 8.96C59.8173 8.96 61.524 9.44 62.7506 10.4C63.9773 11.36 64.5906 12.6933 64.5906 14.4V25.56C64.8306 25.7467 65.2173 25.9467 65.7506 26.16C66.284 26.3733 66.8306 26.5333 67.3906 26.64L67.2306 28H61.7106L61.3106 26.2C60.484 26.9733 59.6173 27.52 58.7106 27.84C57.804 28.1333 56.7773 28.28 55.6306 28.28ZM56.6306 26.64C57.3773 26.64 58.1106 26.4667 58.8306 26.12C59.5506 25.7467 60.3373 25.1467 61.1906 24.32V19.28L57.9906 19.56C56.7373 19.6667 55.7506 20.0667 55.0306 20.76C54.3106 21.4267 53.9506 22.2933 53.9506 23.36C53.9506 25.5467 54.844 26.64 56.6306 26.64ZM76.6197 28.28C74.193 28.28 72.3664 27.5067 71.1397 25.96C69.913 24.4133 69.2997 22.1067 69.2997 19.04C69.2997 15.76 70.073 13.2667 71.6197 11.56C73.1664 9.82667 75.4064 8.96 78.3397 8.96C79.4864 8.96 80.6197 9.18667 81.7397 9.64V5.32C81.7397 4.33333 81.5397 3.66667 81.1397 3.32C80.7397 2.94666 80.0197 2.73333 78.9797 2.68L79.0597 1.52C80.2864 1.30667 81.793 0.919999 83.5797 0.359998L84.3797 0.119999L85.1797 0.519999V25.56C85.793 26.04 86.713 26.4 87.9397 26.64L87.8197 28H82.0597L81.7397 25.64C80.6197 27.4 78.913 28.28 76.6197 28.28ZM76.9797 26.56C78.5264 26.56 79.6997 25.9333 80.4997 24.68C81.3264 23.4267 81.7397 21.5467 81.7397 19.04V11.44C81.2597 11.2 80.753 11.0133 80.2197 10.88C79.6864 10.72 79.0197 10.64 78.2197 10.64C76.513 10.64 75.1797 11.3733 74.2197 12.84C73.2864 14.3067 72.8197 16.3733 72.8197 19.04C72.8197 21.6267 73.153 23.5333 73.8197 24.76C74.513 25.96 75.5664 26.56 76.9797 26.56ZM98.4409 28.28C95.4543 28.28 93.3076 27.4667 92.0009 25.84C90.7209 24.1867 90.0809 21.7333 90.0809 18.48C90.0809 15.52 90.7876 13.2 92.2009 11.52C93.6409 9.81333 95.7209 8.96 98.4409 8.96C101.081 8.96 102.934 9.65333 104.001 11.04C105.068 12.4267 105.641 14.48 105.721 17.2L104.881 18.28H93.7609V18.48C93.7609 20.2133 93.8676 21.6267 94.0809 22.72C94.2943 23.8133 94.7609 24.6933 95.4809 25.36C96.2009 26 97.2676 26.32 98.6809 26.32C99.7476 26.32 100.721 26.12 101.601 25.72C102.481 25.32 103.214 24.8933 103.801 24.44L104.801 25.64C104.134 26.2533 103.268 26.8533 102.201 27.44C101.134 28 99.8809 28.28 98.4409 28.28ZM102.121 16.52C102.121 14.4133 101.841 12.8933 101.281 11.96C100.748 11.0267 99.7476 10.56 98.2809 10.56C96.7609 10.56 95.6409 11.12 94.9209 12.24C94.2009 13.3333 93.8143 14.8533 93.7609 16.8L102.121 16.52ZM112.857 28.28C111.204 28.28 109.924 27.88 109.017 27.08C108.111 26.28 107.657 25.16 107.657 23.72C107.657 21.9867 108.297 20.6267 109.577 19.64C110.857 18.6267 112.711 18.04 115.137 17.88L118.417 17.64V14.4C118.417 13.0667 118.137 12.0933 117.577 11.48C117.017 10.8667 116.111 10.56 114.857 10.56C113.791 10.56 112.964 10.72 112.377 11.04C111.817 11.36 111.537 11.8 111.537 12.36C111.537 13.0533 111.937 13.5467 112.737 13.84C112.737 14.4533 112.537 14.9333 112.137 15.28C111.764 15.6 111.204 15.76 110.457 15.76C109.764 15.76 109.204 15.5467 108.777 15.12C108.351 14.6933 108.137 14.1333 108.137 13.44C108.137 12.08 108.737 11 109.937 10.2C111.164 9.37333 112.804 8.96 114.857 8.96C117.044 8.96 118.751 9.44 119.977 10.4C121.204 11.36 121.817 12.6933 121.817 14.4V25.56C122.057 25.7467 122.444 25.9467 122.977 26.16C123.511 26.3733 124.057 26.5333 124.617 26.64L124.457 28H118.937L118.537 26.2C117.711 26.9733 116.844 27.52 115.937 27.84C115.031 28.1333 114.004 28.28 112.857 28.28ZM113.857 26.64C114.604 26.64 115.337 26.4667 116.057 26.12C116.777 25.7467 117.564 25.1467 118.417 24.32V19.28L115.217 19.56C113.964 19.6667 112.977 20.0667 112.257 20.76C111.537 21.4267 111.177 22.2933 111.177 23.36C111.177 25.5467 112.071 26.64 113.857 26.64Z" fill="black"/>
</svg>
