<svg width="80" height="80" viewBox="0 0 80 80" fill="none" xmlns="http://www.w3.org/2000/svg">
<rect width="80" height="80" rx="40" fill="#E9E2D9"/>
<path d="M53.75 20H26.25V60H53.75V20ZM52.5 21.25V25H27.5V21.25H52.5ZM52.5 26.25V51.25H27.5V26.25H52.5ZM27.5 58.75V52.5H52.5V58.75H27.5Z" fill="#212121"/>
<path d="M37.5 22.5H42.5V23.75H37.5V22.5Z" fill="#212121"/>
<path d="M40 53.75C38.9662 53.75 38.125 54.5912 38.125 55.625C38.125 56.6588 38.9662 57.5 40 57.5C41.0338 57.5 41.875 56.6588 41.875 55.625C41.875 54.5912 41.0338 53.75 40 53.75ZM40 56.25C39.6556 56.25 39.375 55.9694 39.375 55.625C39.375 55.2806 39.6556 55 40 55C40.3444 55 40.625 55.2806 40.625 55.625C40.625 55.9694 40.3444 56.25 40 56.25Z" fill="#212121"/>
</svg>
