<svg width="90" height="90" viewBox="0 0 90 90" fill="none" xmlns="http://www.w3.org/2000/svg">
<path d="M25.7539 31.3C25.0872 29.4333 24.3539 28.2 23.5539 27.6C22.8206 26.9333 21.6872 26.6 20.1539 26.6H18.5539V24H39.5539V26.6H37.9539C35.3539 26.6 34.0539 27.2667 34.0539 28.6C34.0539 28.7333 34.1206 29.0667 34.2539 29.6L45.9539 62.8L57.6539 29.9C57.7872 29.3667 57.8539 29.0333 57.8539 28.9C57.8539 27.3667 56.4872 26.6 53.7539 26.6H52.2539V24H70.3539V26.6H68.0539C65.7206 26.6 64.2206 27.5 63.5539 29.3L48.1539 71H40.5539L25.7539 31.3Z" fill="#252525"/>
</svg>
