<svg width="80" height="33" viewBox="0 0 80 33" fill="none" xmlns="http://www.w3.org/2000/svg">
<path d="M0.0341016 4.07425C0.0341016 2.98892 0.400768 2.15292 1.1341 1.56626C1.86744 0.950255 2.87944 0.642255 4.1701 0.642255V15.7343L20.2301 0.642255C20.7288 1.05292 21.1394 1.49292 21.4621 1.96226C21.7848 2.40226 21.9461 2.79826 21.9461 3.15026C21.9461 3.88359 21.5061 4.66092 20.6261 5.48226L10.3301 15.1623L23.6181 31.0903C23.2954 31.4423 22.9141 31.7209 22.4741 31.9263C22.0634 32.1316 21.6528 32.2343 21.2421 32.2343C20.0981 32.2343 19.1741 31.8236 18.4701 31.0023L7.3381 17.8023L4.1701 20.7503V28.9343C4.1701 30.0489 3.83277 30.8849 3.1581 31.4423C2.48344 31.9703 1.4421 32.2343 0.0341016 32.2343V4.07425ZM28.6063 31.8383C28.0196 31.8383 27.5503 31.6769 27.1983 31.3543C26.8756 31.0316 26.7143 30.5916 26.7143 30.0343C26.7143 27.7756 27.5796 25.6636 29.3103 23.6983C31.0409 21.7329 33.7543 19.7823 37.4503 17.8463C39.5623 16.7316 41.1609 15.7783 42.2463 14.9863C43.3609 14.1649 44.1236 13.3583 44.5343 12.5663C44.9743 11.7449 45.1943 10.7769 45.1943 9.66226C45.1943 7.93159 44.6223 6.61159 43.4783 5.70226C42.3636 4.79292 40.7209 4.33826 38.5503 4.33826C36.2036 4.33826 34.3703 4.89559 33.0503 6.01026C31.7596 7.12492 31.1143 8.67959 31.1143 10.6743C31.1143 11.2023 31.1583 11.7596 31.2463 12.3463L30.7183 12.3903C29.6623 12.3903 28.7676 12.0823 28.0343 11.4663C27.3009 10.8503 26.9343 10.0876 26.9343 9.17825C26.9343 7.59426 27.4476 6.15692 28.4743 4.86626C29.5009 3.54625 30.8943 2.51959 32.6543 1.78626C34.4436 1.02359 36.4089 0.642255 38.5503 0.642255C40.7503 0.642255 42.6716 1.00892 44.3143 1.74226C45.9569 2.47559 47.2183 3.53159 48.0983 4.91025C48.9783 6.25959 49.4183 7.84359 49.4183 9.66226C49.4183 11.7449 48.6556 13.6223 47.1303 15.2943C45.6343 16.9663 43.0969 18.7409 39.5183 20.6183C34.3263 23.3756 31.5836 25.9129 31.2903 28.2303H46.3823C47.4969 28.2303 48.3476 28.5383 48.9343 29.1543C49.5209 29.7703 49.8143 30.6649 49.8143 31.8383H28.6063ZM56.1166 31.8383C55.5299 31.8383 55.0312 31.6623 54.6206 31.3103C54.2099 30.9289 54.0046 30.4596 54.0046 29.9023V2.97426C54.0046 2.41692 54.1952 1.96226 54.5766 1.61026C54.9872 1.22892 55.5006 1.03825 56.1166 1.03825H66.4126C68.9059 1.03825 71.1059 1.50759 73.0126 2.44625C74.9192 3.38492 76.4006 4.70492 77.4566 6.40626C78.5419 8.07826 79.0846 9.99959 79.0846 12.1703V20.6183C79.0846 22.7889 78.5419 24.7249 77.4566 26.4263C76.4006 28.1276 74.9046 29.4623 72.9686 30.4303C71.0619 31.3689 68.8766 31.8383 66.4126 31.8383H56.1166ZM65.9726 28.2303C68.7886 28.2303 70.9886 27.5703 72.5726 26.2503C74.1566 24.9009 74.9486 23.0383 74.9486 20.6623V12.1263C74.9486 9.77959 74.1566 7.94626 72.5726 6.62626C70.9886 5.30626 68.7886 4.64626 65.9726 4.64626H58.1406V28.2303H65.9726Z" fill="#4F3B89"/>
</svg>
