<svg width="104" height="35" viewBox="0 0 104 35" fill="none" xmlns="http://www.w3.org/2000/svg">
<path d="M18.6341 3.53578H23.9359L4.25047 23.8103V18.4103L18.6341 3.53578ZM9.79774 16.5449L24.7705 34.3649H19.7632L7.04865 19.0485L9.79774 16.5449ZM0.912283 3.53578H4.79047V34.3649H0.912283V3.53578ZM44.2803 34.3649L43.7894 29.2103V19.1467C43.7894 17.0358 43.3394 15.5221 42.4394 14.6058C41.5394 13.673 40.1894 13.2067 38.3894 13.2067C37.3748 13.2067 36.4503 13.354 35.6157 13.6485C34.7975 13.943 34.143 14.4012 33.6521 15.023C33.1775 15.6285 32.9403 16.414 32.9403 17.3794H28.6694C28.6694 15.6776 29.0866 14.3112 29.9212 13.2803C30.7557 12.233 31.9012 11.4803 33.3575 11.0221C34.8303 10.5476 36.5075 10.3103 38.3894 10.3103C40.1894 10.3103 41.7848 10.6131 43.1757 11.2185C44.5666 11.824 45.6548 12.7894 46.4403 14.1149C47.2257 15.424 47.6184 17.134 47.6184 19.2449V34.3649H44.2803ZM36.2784 34.954C34.3475 34.954 32.7521 34.6103 31.4921 33.923C30.2321 33.2358 29.2912 32.344 28.6694 31.2476C28.0475 30.1512 27.7366 28.9976 27.7366 27.7867C27.7366 26.1994 28.1294 24.9067 28.9148 23.9085C29.7166 22.9103 30.8048 22.1821 32.1794 21.724C33.5539 21.2494 35.1003 21.0121 36.8184 21.0121C38.0457 21.0121 39.273 21.1349 40.5003 21.3803C41.7439 21.6258 42.9548 21.9612 44.133 22.3867V24.7921C43.1512 24.3994 42.0384 24.0885 40.7948 23.8594C39.5675 23.6303 38.4384 23.5158 37.4075 23.5158C35.8366 23.5158 34.5112 23.843 33.4312 24.4976C32.3512 25.1358 31.8112 26.2321 31.8112 27.7867C31.8112 28.9321 32.2203 29.914 33.0384 30.7321C33.873 31.5503 35.1984 31.9594 37.0148 31.9594C38.2912 31.9594 39.4366 31.6649 40.4512 31.0758C41.4821 30.4703 42.2921 29.7176 42.8812 28.8176C43.4866 27.9176 43.7894 27.0176 43.7894 26.1176H44.7221C44.7221 27.6885 44.3784 29.1449 43.6912 30.4867C43.0203 31.8285 42.0548 32.9085 40.7948 33.7267C39.5348 34.5449 38.0294 34.954 36.2784 34.954ZM55.8059 34.3649V10.8503H59.635V34.3649H55.8059ZM58.4568 23.7612C58.4568 20.783 58.7432 18.3121 59.3159 16.3485C59.8886 14.3685 60.7232 12.8958 61.8195 11.9303C62.9323 10.9485 64.2823 10.4576 65.8695 10.4576C66.3932 10.4576 66.8677 10.4985 67.2932 10.5803C67.735 10.6458 68.1768 10.7521 68.6186 10.8994L68.3732 14.6794C67.915 14.5321 67.4159 14.4094 66.8759 14.3112C66.3359 14.1967 65.8532 14.1394 65.4277 14.1394C64.0368 14.1394 62.9159 14.5403 62.065 15.3421C61.2141 16.1276 60.5923 17.2403 60.1995 18.6803C59.8232 20.1203 59.635 21.814 59.635 23.7612H58.4568ZM72.562 34.3649V0.884867H76.3911V34.3649H72.562ZM99.87 34.3649L99.3791 29.2103V19.1467C99.3791 17.0358 98.9291 15.5221 98.0291 14.6058C97.1291 13.673 95.7791 13.2067 93.9791 13.2067C92.9645 13.2067 92.04 13.354 91.2054 13.6485C90.3872 13.943 89.7327 14.4012 89.2418 15.023C88.7672 15.6285 88.53 16.414 88.53 17.3794H84.2591C84.2591 15.6776 84.6763 14.3112 85.5109 13.2803C86.3454 12.233 87.4909 11.4803 88.9472 11.0221C90.42 10.5476 92.0972 10.3103 93.9791 10.3103C95.7791 10.3103 97.3745 10.6131 98.7654 11.2185C100.156 11.824 101.245 12.7894 102.03 14.1149C102.815 15.424 103.208 17.134 103.208 19.2449V34.3649H99.87ZM91.8681 34.954C89.9372 34.954 88.3418 34.6103 87.0818 33.923C85.8218 33.2358 84.8809 32.344 84.2591 31.2476C83.6372 30.1512 83.3263 28.9976 83.3263 27.7867C83.3263 26.1994 83.7191 24.9067 84.5045 23.9085C85.3063 22.9103 86.3945 22.1821 87.7691 21.724C89.1436 21.2494 90.69 21.0121 92.4081 21.0121C93.6354 21.0121 94.8627 21.1349 96.09 21.3803C97.3336 21.6258 98.5445 21.9612 99.7227 22.3867V24.7921C98.7409 24.3994 97.6281 24.0885 96.3845 23.8594C95.1572 23.6303 94.0281 23.5158 92.9972 23.5158C91.4263 23.5158 90.1009 23.843 89.0209 24.4976C87.9409 25.1358 87.4009 26.2321 87.4009 27.7867C87.4009 28.9321 87.81 29.914 88.6281 30.7321C89.4627 31.5503 90.7881 31.9594 92.6045 31.9594C93.8809 31.9594 95.0263 31.6649 96.0409 31.0758C97.0718 30.4703 97.8818 29.7176 98.4709 28.8176C99.0763 27.9176 99.3791 27.0176 99.3791 26.1176H100.312C100.312 27.6885 99.9681 29.1449 99.2809 30.4867C98.61 31.8285 97.6445 32.9085 96.3845 33.7267C95.1245 34.5449 93.6191 34.954 91.8681 34.954Z" fill="#4F3B89"/>
</svg>
