<svg width="80" height="80" viewBox="0 0 80 80" fill="none" xmlns="http://www.w3.org/2000/svg">
<rect width="80" height="80" rx="40" fill="#E9E2D9"/>
<path d="M56.9493 60.1462L59.9999 53.7297V20.8545H53.8987V23.4211H51.4583V30.4791H52.6785V24.7044H53.8987V53.7297L56.9493 60.1462ZM55.119 22.1378H58.7797V53.4269L56.9493 57.2767L55.119 53.4269V22.1378Z" fill="#212121"/>
<path d="M48.8958 24.4844H40.1422L39.6548 22.5625H37.1975V20H30.6984V22.5625H28.2411L27.7536 24.4844H19V61H48.8958V24.4844ZM29.2562 23.8438H31.9982V21.2812H35.8976V23.8438H38.6396L39.6145 27.6875H28.2814L29.2562 23.8438ZM47.596 59.7188H20.2998V25.7656H27.4287L26.6163 28.9688H41.2795L40.4672 25.7656H47.596V59.7188Z" fill="#212121"/>
</svg>
