<svg width="241" height="53" viewBox="0 0 241 53" fill="none" xmlns="http://www.w3.org/2000/svg">
<path d="M9.28687 4.0972C3.52687 4.8012 2.50287 8.7692 3.07887 15.7452C3.65487 22.6572 10.5669 28.0972 11.8469 37.5052C12.7429 44.0332 8.00687 46.9132 5.25487 46.1452C4.03887 45.8252 3.39887 44.6732 3.20687 43.0732C3.07887 41.3452 3.27087 40.5772 3.01487 40.0652C2.56687 38.9132 1.79887 39.2332 1.47887 39.4252C1.03087 39.7452 0.454871 46.4652 4.93487 48.1932C9.41487 49.9212 19.7189 49.5372 17.9909 36.3532C17.9909 36.3532 16.0709 28.9932 12.1669 22.4012C8.19887 15.8732 8.07087 10.1132 9.79887 8.1932C11.5909 6.2732 13.9589 7.1052 15.1749 8.6412C16.3909 10.1772 17.0949 11.5852 17.9909 11.3292C18.8229 11.0732 18.1829 9.9212 18.2469 9.8572C18.2469 9.8572 15.0469 3.4572 9.28687 4.0972ZM25.0614 27.5212C25.0614 33.2172 25.1254 40.0012 25.4454 43.5212C25.5734 45.3132 26.0214 47.5532 27.6854 48.1292C28.1974 48.3212 29.3494 48.3212 29.9254 48.1932C30.9494 47.8732 30.8854 41.0892 30.8854 34.6892C30.8214 29.8892 30.9494 25.2812 30.9494 23.7452L30.8214 7.1692C32.7414 7.2332 34.9814 7.2332 36.6454 7.0412C40.2294 6.5292 39.2694 4.5452 37.7334 4.1612C36.2614 3.7772 21.2214 4.6732 20.0054 4.6732C18.7254 4.6732 18.1494 5.8892 19.3014 6.4012C20.1334 6.7852 23.4614 6.7212 25.1894 6.6572C25.1894 8.3852 24.9974 20.6092 25.0614 27.5212ZM49.8844 11.5852C49.8844 11.5852 52.5724 27.5212 54.1724 36.9932C51.4844 36.9292 45.4044 37.2492 43.0364 37.4412C45.2764 29.3132 48.2204 18.0492 49.8844 11.5852ZM42.6524 38.7852C46.4284 38.4652 52.5084 38.4652 54.4284 38.5292C54.8124 40.8332 55.0684 42.6252 55.1964 43.3932C55.8364 47.0412 56.3484 47.8092 57.4364 47.9372C58.5884 48.0652 58.7164 47.1692 58.7164 47.1692C58.4604 42.7532 51.2284 6.4012 51.2284 6.4012C52.2524 3.2012 46.0444 3.5852 45.4044 6.2732C44.7644 8.9612 36.9564 35.2652 36.9564 35.2652C36.9564 35.2652 33.5644 44.7372 34.4604 46.6572C35.2924 48.5772 38.8124 49.2172 40.0284 47.1692C40.3484 46.5932 41.3724 43.3292 42.6524 38.7852ZM61.4219 6.4012C61.4859 9.4092 61.6139 33.6012 61.6139 37.1852C61.6139 40.7692 61.9339 43.2012 61.9339 43.2012C61.9339 43.2012 61.6139 47.2332 64.2379 48.6412C66.8619 50.0492 66.9899 47.6172 66.9899 42.7532C66.9899 40.5132 66.9259 34.1132 66.7979 27.8412C67.9499 30.1452 75.7579 45.1852 79.2139 47.8732C79.2139 47.8732 80.5579 48.6412 81.0699 47.6172C81.5819 46.6572 79.5979 44.7372 78.6379 43.3292C77.6139 41.9212 70.0619 28.8652 70.0619 28.8652C70.0619 28.8652 76.0779 25.8572 78.1899 21.6332C80.3019 17.4732 82.2219 0.321198 64.8779 4.9932C64.7499 4.8652 64.6219 4.8012 64.4939 4.7372C62.0619 3.5852 61.2939 3.3292 61.4219 6.4012ZM66.5419 17.6012C66.4779 15.1692 66.7339 9.4092 65.7099 6.4652L65.7739 6.5292C65.7739 6.5292 73.4539 4.8652 74.9259 9.5372C76.4619 14.2732 71.9179 23.7452 66.7339 23.6812C66.6699 21.4412 66.6059 19.3292 66.5419 17.6012ZM83.8294 6.4012C83.8934 9.4092 84.0214 33.6012 84.0214 37.1852C84.0214 40.7692 84.3414 43.2012 84.3414 43.2012C84.3414 43.2012 84.0214 47.2332 86.6454 48.6412C89.2694 50.0492 89.3974 47.6172 89.3974 42.7532C89.3974 40.5132 89.3334 34.1132 89.2054 27.8412C90.3574 30.1452 98.1654 45.1852 101.621 47.8732C101.621 47.8732 102.965 48.6412 103.477 47.6172C103.989 46.6572 102.005 44.7372 101.045 43.3292C100.021 41.9212 92.4694 28.8652 92.4694 28.8652C92.4694 28.8652 98.4854 25.8572 100.597 21.6332C102.709 17.4732 104.629 0.321198 87.2854 4.9932C87.1574 4.8652 87.0294 4.8012 86.9014 4.7372C84.4694 3.5852 83.7014 3.3292 83.8294 6.4012ZM88.9494 17.6012C88.8854 15.1692 89.1414 9.4092 88.1174 6.4652L88.1814 6.5292C88.1814 6.5292 95.8614 4.8652 97.3334 9.5372C98.8694 14.2732 94.3254 23.7452 89.1414 23.6812C89.0774 21.4412 89.0134 19.3292 88.9494 17.6012ZM116.423 20.3532C113.223 16.1292 104.583 4.8652 103.751 4.3532C102.791 3.7132 101.895 5.2492 103.495 7.2332C104.839 8.8332 112.647 19.7772 115.271 23.5532L110.919 36.6092C110.279 38.5932 108.231 44.0332 109.191 45.8892C110.343 48.1292 112.519 49.8572 113.479 48.2572C114.375 46.6572 114.631 45.3772 118.663 32.3212C122.695 19.2652 126.599 9.2172 126.599 6.9772C126.599 4.7372 124.935 3.8412 122.887 4.3532C120.775 4.8652 119.815 10.1772 119.815 10.1772L116.423 20.3532ZM151.045 4.2892C146.309 4.0332 143.621 4.9292 141.189 13.4412C138.821 22.0172 139.333 38.7852 142.981 43.8412C146.565 48.8332 153.221 52.8652 156.677 40.4492C156.677 40.4492 157.573 36.4172 156.421 36.4172C155.333 36.4172 154.949 42.0492 153.157 44.3532C151.365 46.5932 148.293 47.4892 146.117 40.9612C143.941 34.4332 146.245 14.5932 146.885 11.2012C147.525 7.8092 148.485 5.1212 151.621 6.0172C154.757 6.9132 154.629 9.4092 154.757 11.0732C154.949 12.7372 156.613 12.9292 156.613 11.5852C156.613 11.5852 155.781 4.5452 151.045 4.2892ZM172.954 11.5852C172.954 11.5852 175.642 27.5212 177.242 36.9932C174.554 36.9292 168.474 37.2492 166.106 37.4412C168.346 29.3132 171.29 18.0492 172.954 11.5852ZM165.722 38.7852C169.498 38.4652 175.578 38.4652 177.498 38.5292C177.882 40.8332 178.138 42.6252 178.266 43.3932C178.906 47.0412 179.418 47.8092 180.506 47.9372C181.658 48.0652 181.786 47.1692 181.786 47.1692C181.53 42.7532 174.298 6.4012 174.298 6.4012C175.322 3.2012 169.114 3.5852 168.474 6.2732C167.834 8.9612 160.026 35.2652 160.026 35.2652C160.026 35.2652 156.634 44.7372 157.53 46.6572C158.362 48.5772 161.882 49.2172 163.098 47.1692C163.418 46.5932 164.442 43.3292 165.722 38.7852ZM184.428 42.5612C184.172 46.9132 186.284 48.7692 188.652 48.8332C191.084 48.8972 189.804 37.3772 190.188 25.4092C190.188 24.3852 190.188 23.4892 190.252 22.5932L191.34 20.8652C192.364 25.2172 197.612 43.2652 198.508 45.7612C199.34 47.8732 201.58 48.8972 203.18 48.1292C204.78 47.3612 203.372 43.2012 203.372 43.2012C201.068 35.3292 195.308 20.2892 194.092 17.2172C196.844 13.5692 201.068 8.1292 202.156 6.7852C203.884 4.8012 201.964 3.7132 201.452 4.4172C200.94 5.0572 191.532 17.2812 190.316 18.9452C190.38 14.1452 190.252 10.4972 190.06 8.2572C189.676 4.8652 186.22 2.4332 184.876 4.3532C184.876 4.3532 184.684 38.2092 184.428 42.5612ZM209.275 3.9692C207.675 3.9692 206.907 5.3132 206.779 12.2252C206.651 19.1372 206.395 36.5452 206.651 41.3452C206.907 46.2092 206.651 48.5132 210.427 48.5132C214.139 48.5132 217.595 48.6412 218.875 48.0652C220.091 47.4252 220.091 46.5932 218.363 46.4652C216.635 46.3372 212.155 46.5932 212.155 46.5932C212.155 46.5932 211.387 47.0412 211.387 45.3772C211.387 43.6492 211.643 36.9932 211.643 36.9932C211.643 36.9932 215.867 36.9932 217.339 36.8652C218.811 36.7372 218.875 36.0972 218.811 35.0732C218.747 34.0492 214.395 34.3052 211.899 34.2412L211.643 6.2732C213.307 6.2732 217.211 6.3372 219.067 6.4012C221.371 6.4652 221.371 4.5452 219.899 4.3532C218.619 4.2252 211.451 4.0972 209.787 4.0332C209.595 4.0332 209.467 3.9692 209.275 3.9692ZM229.644 4.0972C223.884 4.8012 222.86 8.7692 223.436 15.7452C224.012 22.6572 230.924 28.0972 232.204 37.5052C233.1 44.0332 228.364 46.9132 225.612 46.1452C224.396 45.8252 223.756 44.6732 223.564 43.0732C223.436 41.3452 223.628 40.5772 223.372 40.0652C222.924 38.9132 222.156 39.2332 221.836 39.4252C221.388 39.7452 220.812 46.4652 225.292 48.1932C229.772 49.9212 240.076 49.5372 238.348 36.3532C238.348 36.3532 236.428 28.9932 232.524 22.4012C228.556 15.8732 228.428 10.1132 230.156 8.1932C231.948 6.2732 234.316 7.1052 235.532 8.6412C236.812 10.1772 237.452 11.5852 238.348 11.3292C239.18 11.0732 238.54 9.9212 238.604 9.8572C238.604 9.8572 235.404 3.4572 229.644 4.0972Z" fill="#4F3B89"/>
</svg>
