<svg width="189" height="178" viewBox="0 0 189 178" fill="none" xmlns="http://www.w3.org/2000/svg">
<path d="M77.0709 63.8057C74.1639 66.2377 65.1579 67.9477 56.7029 89.2847L44.2579 78.0937C38.5135 81.0087 34.0626 85.961 31.7749 91.9827L50.4899 108.8C52.6578 110.741 55.5071 111.743 58.4128 111.586C61.3184 111.43 64.0434 110.127 65.9899 107.964L73.7449 99.3307L70.6639 119.763L58.0479 133.823C61.2134 139.381 66.0924 143.766 71.9559 146.323L85.3129 131.465C87.2902 129.266 88.6877 126.608 89.3789 123.732C92.2859 111.532 91.2979 90.0067 93.1789 71.4627C85.6399 70.0567 82.8469 68.3467 77.0709 63.8057Z" fill="#E9E2D9"/>
<path d="M180.036 64.6606L158.376 87.5176L166.964 49.7076L188.624 26.8506L180.036 64.6606Z" fill="#E9E9E9"/>
<path d="M111.366 56.2815C111.081 56.0915 110.587 56.2625 109.941 56.7185L111.441 57.9535C111.689 57.0795 111.689 56.4715 111.366 56.2815Z" fill="#E9E9E9"/>
<path d="M97.9519 67.9668C97.5519 68.9928 97.6049 69.8548 97.9139 70.0568C98.2229 70.2588 99.1139 70.0568 99.7139 69.2778L97.9519 67.9668Z" fill="#E9E9E9"/>
<path d="M106.6 57.1175C106.315 56.9275 105.821 57.0985 105.175 57.5545L106.675 58.7895C106.92 57.9345 106.9 57.3265 106.6 57.1175Z" fill="#E9E9E9"/>
<path d="M62.1561 129.146L57.9561 133.82C61.1216 139.378 66.0006 143.763 71.8641 146.32L76.2531 141.437C70.4819 138.762 65.5921 134.499 62.1561 129.146Z" fill="#E9E9E9"/>
<path d="M86.3242 60.2334L93.3542 71.1584L95.2162 67.7764L86.3242 60.2334Z" fill="#E9E9E9"/>
<path d="M93.5249 32.6836L94.4939 34.7736L95.0259 33.3486L93.5249 32.6836Z" fill="#E9E9E9"/>
<path d="M88.4901 82.9199L73.7271 99.3359L72.2261 109.406L88.4901 82.9199Z" fill="#E9E9E9"/>
<path d="M52.6183 146.057C51.3833 147.387 50.1103 148.717 48.7993 150.085C47.7543 156.26 48.2483 170.434 50.2433 177.027C55.5433 168.211 57.4633 162.627 60.1433 153.543C57.2561 151.46 54.7164 148.933 52.6183 146.057Z" fill="#E9E9E9"/>
<path d="M31.7001 73.1912C30.7881 72.2792 29.7431 71.1582 28.3561 69.6572C17.6001 71.1772 5.76406 74.7682 0.748047 77.1432C8.39866 80.0363 16.5939 81.2041 24.7481 80.5632L25.1661 80.9432C26.9595 78.0581 29.1602 75.4471 31.7001 73.1912Z" fill="#E9E9E9"/>
<path d="M48.3623 81.6844L44.2623 77.9844C38.5222 80.905 34.073 85.8554 31.7793 91.8734L35.9403 95.6164C38.819 89.9844 43.0964 85.1875 48.3623 81.6844Z" fill="#E9E9E9"/>
<path d="M101.885 20.3146C101.966 19.8543 101.88 19.3802 101.643 18.9772C101.407 18.5742 101.034 18.2685 100.593 18.1146C100.877 17.8521 101.078 17.5123 101.172 17.1369C101.266 16.7616 101.248 16.3671 101.12 16.0018C100.993 15.6366 100.761 15.3165 100.455 15.0809C100.148 14.8453 99.7789 14.7044 99.3929 14.6756C99.5499 14.3407 99.6119 13.9687 99.5699 13.601C99.5289 13.2333 99.3859 12.8843 99.1579 12.5929C98.9299 12.3015 98.6259 12.079 98.2789 11.9503C97.9319 11.8215 97.5559 11.7915 97.1929 11.8636C97.2399 11.4949 97.1819 11.1204 97.0259 10.7829C96.8699 10.4454 96.6229 10.1584 96.3119 9.95454C96.0009 9.75064 95.6389 9.63813 95.2679 9.62963C94.8959 9.62113 94.5299 9.71713 94.2099 9.90663C94.1419 9.52793 93.9667 9.17673 93.7044 8.89523C93.4421 8.61373 93.1041 8.41393 92.7311 8.31963C92.3581 8.22533 91.9658 8.24074 91.6012 8.36384C91.2367 8.48694 90.9154 8.71253 90.6759 9.01363C90.4947 8.65093 90.2117 8.34883 89.8616 8.14423C89.5115 7.93963 89.1094 7.84144 88.7044 7.86154C88.2994 7.88174 87.909 8.01934 87.5809 8.25774C87.2528 8.49604 87.0013 8.82474 86.8569 9.20364C86.6273 8.96164 86.3405 8.78124 86.0229 8.67914C85.7053 8.57714 85.3671 8.55653 85.0394 8.61953C84.7118 8.68253 84.4053 8.82684 84.1482 9.03944C83.891 9.25194 83.6915 9.52574 83.5679 9.83564C83.6006 9.36054 83.4968 8.88603 83.269 8.46793C83.0411 8.04973 82.6985 7.70544 82.2816 7.47534C81.8646 7.24534 81.3907 7.13913 80.9154 7.16923C80.4402 7.19943 79.9834 7.36474 79.5989 7.64564C79.3884 7.15973 79.0345 6.74964 78.5846 6.47024C78.1347 6.19094 77.6102 6.05563 77.0813 6.08243C76.5523 6.10933 76.0442 6.29703 75.6249 6.62053C75.2056 6.94403 74.8951 7.38783 74.7349 7.89263C74.3 7.62963 73.795 7.50613 73.2878 7.53883C72.7806 7.57153 72.2956 7.75884 71.8981 8.07544C71.5006 8.39214 71.2096 8.82303 71.0644 9.31013C70.9192 9.79713 70.9267 10.317 71.0859 10.7996C70.5772 10.8572 70.0986 11.0702 69.7152 11.4097C69.3319 11.7491 69.0626 12.1984 68.9439 12.6965C68.8251 13.1945 68.8628 13.717 69.0518 14.1929C69.2408 14.6687 69.5719 15.0747 69.9999 15.3556C69.5991 15.6802 69.3088 16.1211 69.1693 16.6176C69.0297 17.1141 69.0477 17.6417 69.2208 18.1275C69.3939 18.6134 69.7135 19.0335 70.1355 19.33C70.5575 19.6265 71.0612 19.7846 71.5769 19.7826C71.4734 20.278 71.5236 20.7932 71.7209 21.2592C71.9181 21.7253 72.2529 22.12 72.6805 22.3906C73.1081 22.6613 73.6082 22.7949 74.1138 22.7736C74.6194 22.7523 75.1065 22.5772 75.5099 22.2716C75.6697 22.6815 75.9384 23.0398 76.287 23.3081C76.6356 23.5763 77.0508 23.7442 77.4879 23.7936C77.4076 24.0773 77.3914 24.3754 77.4405 24.6661C77.4895 24.9569 77.6026 25.2331 77.7716 25.4747C77.9405 25.7164 78.161 25.9175 78.4172 26.0635C78.6734 26.2094 78.9589 26.2966 79.2529 26.3186C79.0941 26.6546 79.0326 27.0283 79.0754 27.3975C79.1182 27.7666 79.2635 28.1164 79.495 28.4071C79.7264 28.6979 80.0346 28.918 80.3847 29.0425C80.7349 29.167 81.1129 29.191 81.4759 29.1116C81.4323 29.481 81.4931 29.8553 81.6515 30.1918C81.8099 30.5284 82.0595 30.8138 82.3719 31.0156C82.6843 31.2175 83.0471 31.3276 83.419 31.3337C83.791 31.3397 84.1571 31.2413 84.4759 31.0496C84.5437 31.4287 84.7199 31.78 84.9832 32.0611C85.2464 32.3422 85.5855 32.541 85.9593 32.6334C86.3331 32.7259 86.7258 32.708 87.0897 32.5821C87.4536 32.4561 87.7732 32.2274 88.0099 31.9236C88.2495 32.2672 88.5601 32.5552 88.9207 32.7683C89.2813 32.9813 89.6834 33.1145 90.0999 33.1586C90.7364 32.0088 91.1672 30.7567 91.3729 29.4586C91.5843 28.1369 91.3373 26.7826 90.6729 25.6206C87.8419 24.6896 89.1149 21.3646 91.0339 22.6566C91.9459 23.2836 92.2919 23.2436 92.3639 22.6376C92.3692 22.4625 92.4218 22.2922 92.5162 22.1446C92.6106 21.997 92.7432 21.8778 92.8999 21.7996C93.0688 22.156 93.3393 22.4544 93.6774 22.6574C94.0149 22.8605 94.4059 22.959 94.7999 22.9408C95.1939 22.9225 95.5739 22.7882 95.8909 22.5547C96.2089 22.3213 96.4509 21.9991 96.5859 21.6286C96.7699 21.823 96.9909 21.9785 97.2359 22.0859C97.4809 22.1934 97.7449 22.2505 98.0119 22.2541C98.2799 22.2576 98.5449 22.2075 98.7929 22.1065C99.0409 22.0056 99.2659 21.8561 99.4549 21.6666C99.9249 22.774 100.282 23.9263 100.519 25.1056C100.804 24.9449 101.046 24.7166 101.222 24.4407C101.399 24.1648 101.505 23.8498 101.531 23.5234C101.557 23.1969 101.503 22.869 101.373 22.5685C101.243 22.2679 101.041 22.0039 100.785 21.7996C101.071 21.6545 101.319 21.4448 101.51 21.187C101.701 20.9293 101.83 20.6306 101.885 20.3146Z" fill="#E9E9E9"/>
<path d="M143.381 14.881C143.253 14.1107 142.9 13.3956 142.366 12.8261C141.831 12.2566 141.14 11.8583 140.38 11.6816C139.619 11.5049 138.823 11.5576 138.093 11.8332C137.362 12.1088 136.73 12.5948 136.275 13.2299C135.821 13.8649 135.565 14.6204 135.54 15.4008C135.515 16.1812 135.722 16.9515 136.135 17.6143C136.548 18.2771 137.148 18.8026 137.859 19.1243C138.571 19.4461 139.362 19.5497 140.132 19.422C141.164 19.2494 142.086 18.6745 142.695 17.8232C143.304 16.9719 143.551 15.9138 143.381 14.881Z" fill="#E9E9E9"/>
<path d="M25.4291 103.46L16.5181 106.328L20.2001 128.065L25.4291 103.46Z" fill="#E9E9E9"/>
<path d="M141.12 75.3998L141.114 75.3828L141.12 75.3998Z" fill="#E9E9E9"/>
<path d="M149.176 65.8763L144.065 70.5693C145.858 70.9488 147.6 71.542 149.252 72.3363C149.952 72.6344 150.595 73.0524 151.152 73.5713C151.931 74.4643 147.752 73.1913 145.699 72.9633H145.68C146.095 73.1819 146.473 73.4639 146.801 73.7993C147.475 74.5703 142.32 72.8253 141.861 73.1533C143.837 74.0463 146.896 75.7373 147.637 77.0533C148.511 78.6303 144.027 75.4943 141.12 75.3993C142.963 76.2543 144.977 77.4523 145.699 78.7823C146.687 80.5823 143.115 77.2823 138.859 77.1483H138.84C142.906 79.6183 144.806 81.6483 139.03 79.1433C137.971 78.6696 136.841 78.3742 135.686 78.2693L124.077 88.8853L158.353 87.5553L163.388 65.3633L149.176 65.8763Z" fill="#E9E9E9"/>
<path d="M180.036 64.6606L158.376 87.5176L166.964 49.7076L188.624 26.8506L180.036 64.6606Z" stroke="black" stroke-width="0.75" stroke-linejoin="round"/>
<path d="M149.176 65.8763L144.065 70.5693C145.858 70.9488 147.6 71.542 149.252 72.3363C149.952 72.6344 150.595 73.0524 151.152 73.5713C151.931 74.4643 147.752 73.1913 145.699 72.9633H145.68C146.095 73.1819 146.473 73.4639 146.801 73.7993C147.475 74.5703 142.32 72.8253 141.861 73.1533C143.837 74.0463 146.896 75.7373 147.637 77.0533C148.511 78.6303 144.027 75.4943 141.12 75.3993C142.963 76.2543 144.977 77.4523 145.699 78.7823C146.687 80.5823 143.115 77.2823 138.859 77.1483H138.84C142.906 79.6183 144.806 81.6483 139.03 79.1433C137.971 78.6696 136.841 78.3742 135.686 78.2693L124.077 88.8853L158.353 87.5553L163.388 65.3633L149.176 65.8763Z" stroke="black" stroke-width="0.75" stroke-linejoin="round"/>
<path d="M101.885 20.3146C101.966 19.8543 101.88 19.3802 101.643 18.9772C101.407 18.5742 101.034 18.2685 100.593 18.1146C100.877 17.8521 101.078 17.5123 101.172 17.1369C101.266 16.7616 101.248 16.3671 101.12 16.0018C100.993 15.6366 100.761 15.3165 100.455 15.0809C100.148 14.8453 99.7789 14.7044 99.3929 14.6756C99.5499 14.3407 99.6119 13.9687 99.5699 13.601C99.5289 13.2333 99.3859 12.8843 99.1579 12.5929C98.9299 12.3015 98.6259 12.079 98.2789 11.9503C97.9319 11.8215 97.5559 11.7915 97.1929 11.8636C97.2399 11.4949 97.1819 11.1204 97.0259 10.7829C96.8699 10.4454 96.6229 10.1584 96.3119 9.95454C96.0009 9.75064 95.6389 9.63813 95.2679 9.62963C94.8959 9.62113 94.5299 9.71713 94.2099 9.90663C94.1419 9.52793 93.9667 9.17673 93.7044 8.89523C93.4421 8.61373 93.1041 8.41393 92.7311 8.31963C92.3581 8.22533 91.9658 8.24074 91.6012 8.36384C91.2367 8.48694 90.9154 8.71253 90.6759 9.01363C90.4947 8.65093 90.2117 8.34883 89.8616 8.14423C89.5115 7.93963 89.1094 7.84144 88.7044 7.86154C88.2994 7.88174 87.909 8.01934 87.5809 8.25774C87.2528 8.49604 87.0013 8.82474 86.8569 9.20364C86.6273 8.96164 86.3405 8.78124 86.0229 8.67914C85.7053 8.57714 85.3671 8.55653 85.0394 8.61953C84.7118 8.68253 84.4053 8.82684 84.1482 9.03944C83.891 9.25194 83.6915 9.52574 83.5679 9.83564C83.6006 9.36054 83.4968 8.88603 83.269 8.46793C83.0411 8.04973 82.6985 7.70544 82.2816 7.47534C81.8646 7.24534 81.3907 7.13913 80.9154 7.16923C80.4402 7.19943 79.9834 7.36474 79.5989 7.64564C79.3884 7.15973 79.0345 6.74964 78.5846 6.47024C78.1347 6.19094 77.6102 6.05563 77.0813 6.08243C76.5523 6.10933 76.0442 6.29703 75.6249 6.62053C75.2056 6.94403 74.8951 7.38783 74.7349 7.89263C74.3 7.62963 73.795 7.50613 73.2878 7.53883C72.7806 7.57153 72.2956 7.75884 71.8981 8.07544C71.5006 8.39214 71.2096 8.82303 71.0644 9.31013C70.9192 9.79713 70.9267 10.317 71.0859 10.7996C70.5772 10.8572 70.0986 11.0702 69.7152 11.4097C69.3319 11.7491 69.0626 12.1984 68.9439 12.6965C68.8251 13.1945 68.8628 13.717 69.0518 14.1929C69.2408 14.6687 69.5719 15.0747 69.9999 15.3556C69.5991 15.6802 69.3088 16.1211 69.1693 16.6176C69.0297 17.1141 69.0477 17.6417 69.2208 18.1275C69.3939 18.6134 69.7135 19.0335 70.1355 19.33C70.5575 19.6265 71.0612 19.7846 71.5769 19.7826C71.4734 20.278 71.5236 20.7932 71.7209 21.2592C71.9181 21.7253 72.2529 22.12 72.6805 22.3906C73.1081 22.6613 73.6082 22.7949 74.1138 22.7736C74.6194 22.7523 75.1065 22.5772 75.5099 22.2716C75.6697 22.6815 75.9384 23.0398 76.287 23.3081C76.6356 23.5763 77.0508 23.7442 77.4879 23.7936C77.4076 24.0773 77.3914 24.3754 77.4405 24.6661C77.4895 24.9569 77.6026 25.2331 77.7716 25.4747C77.9405 25.7164 78.161 25.9175 78.4172 26.0635C78.6734 26.2094 78.9589 26.2966 79.2529 26.3186C79.0941 26.6546 79.0326 27.0283 79.0754 27.3975C79.1182 27.7666 79.2635 28.1164 79.495 28.4071C79.7264 28.6979 80.0346 28.918 80.3847 29.0425C80.7349 29.167 81.1129 29.191 81.4759 29.1116C81.4323 29.481 81.4931 29.8553 81.6515 30.1918C81.8099 30.5284 82.0595 30.8138 82.3719 31.0156C82.6843 31.2175 83.0471 31.3276 83.419 31.3337C83.791 31.3397 84.1571 31.2413 84.4759 31.0496C84.5437 31.4287 84.7199 31.78 84.9832 32.0611C85.2464 32.3422 85.5855 32.541 85.9593 32.6334C86.3331 32.7259 86.7258 32.708 87.0897 32.5821C87.4536 32.4561 87.7732 32.2274 88.0099 31.9236C88.2495 32.2672 88.5601 32.5552 88.9207 32.7683C89.2813 32.9813 89.6834 33.1145 90.0999 33.1586C90.7364 32.0088 91.1672 30.7567 91.3729 29.4586C91.5843 28.1369 91.3373 26.7826 90.6729 25.6206C87.8419 24.6896 89.1149 21.3646 91.0339 22.6566C91.9459 23.2836 92.2919 23.2436 92.3639 22.6376C92.3692 22.4625 92.4218 22.2922 92.5162 22.1446C92.6106 21.997 92.7432 21.8778 92.8999 21.7996C93.0688 22.156 93.3393 22.4544 93.6774 22.6574C94.0149 22.8605 94.4059 22.959 94.7999 22.9408C95.1939 22.9225 95.5739 22.7882 95.8909 22.5547C96.2089 22.3213 96.4509 21.9991 96.5859 21.6286C96.7699 21.823 96.9909 21.9785 97.2359 22.0859C97.4809 22.1934 97.7449 22.2505 98.0119 22.2541C98.2799 22.2576 98.5449 22.2075 98.7929 22.1065C99.0409 22.0056 99.2659 21.8561 99.4549 21.6666C99.9249 22.774 100.282 23.9263 100.519 25.1056C100.804 24.9449 101.046 24.7166 101.222 24.4407C101.399 24.1648 101.505 23.8498 101.531 23.5234C101.557 23.1969 101.503 22.869 101.373 22.5685C101.243 22.2679 101.041 22.0039 100.785 21.7996C101.071 21.6545 101.319 21.4448 101.51 21.187C101.701 20.9293 101.83 20.6306 101.885 20.3146Z" stroke="black" stroke-width="0.75" stroke-linejoin="round"/>
<path d="M100.156 32.0761L156.871 22.5381" stroke="black" stroke-width="0.75" stroke-linecap="round" stroke-linejoin="round"/>
<path d="M7.09424 47.6932L89.7442 33.8232" stroke="black" stroke-width="0.75" stroke-linecap="round" stroke-linejoin="round"/>
<path d="M94.3799 41.0059L111.385 56.2819" stroke="black" stroke-width="0.75" stroke-linecap="round" stroke-linejoin="round"/>
<path d="M111.461 57.9539C111.689 57.0989 111.69 56.4889 111.385 56.2819C111.101 56.0899 110.585 56.2599 109.941 56.7189C108.976 57.4808 108.103 58.3535 107.341 59.3189" stroke="black" stroke-width="0.75" stroke-linecap="round" stroke-linejoin="round"/>
<path d="M40.4001 80.4687C33.9781 75.3577 33.4461 75.2057 28.3541 69.6387C17.6001 71.1587 5.76406 74.7497 0.748047 77.1247C8.40436 80.0176 16.6046 81.1853 24.7641 80.5447L33.4851 88.3917" stroke="black" stroke-width="0.75" stroke-linecap="round" stroke-linejoin="round"/>
<path d="M88.6992 41.0439L106.616 57.1179" stroke="black" stroke-width="0.75" stroke-linecap="round" stroke-linejoin="round"/>
<path d="M97.9142 70.0564L86.3242 60.2334L93.3432 71.1554" stroke="black" stroke-width="0.75" stroke-linecap="round" stroke-linejoin="round"/>
<path d="M139.277 72.1992C139.977 72.3512 146.387 74.5912 147.732 76.9872C148.632 78.5822 144.084 75.4102 141.139 75.3152" stroke="black" stroke-width="0.75" stroke-linecap="round" stroke-linejoin="round"/>
<path d="M138.65 74.2939C140.436 74.9399 144.669 76.7279 145.775 78.7399C146.775 80.5659 143.175 77.2199 138.859 77.0869" stroke="black" stroke-width="0.75" stroke-linecap="round" stroke-linejoin="round"/>
<path d="M138.156 76.6873C142.678 79.3283 145.17 81.7733 139.03 79.1193C135.858 77.7483 112.73 77.0483 112.73 77.0483C110.7 76.8383 108.762 76.0971 107.11 74.8993L97.9521 67.9453" stroke="black" stroke-width="0.75" stroke-linecap="round" stroke-linejoin="round"/>
<path d="M105.172 57.5547L114.482 65.8197C114.482 65.8197 137.814 70.1897 139.6 70.6997C141.386 71.2097 145.663 72.2937 146.915 73.7207C147.581 74.4797 143.915 73.1697 141.69 73.0557" stroke="black" stroke-width="0.75" stroke-linecap="round" stroke-linejoin="round"/>
<path d="M106.692 58.7897C106.92 57.9347 106.921 57.3247 106.616 57.1177C106.332 56.9257 105.816 57.0967 105.172 57.5547C102.543 59.4257 98.636 65.2257 97.819 68.4037C97.619 69.1837 97.655 69.8867 97.914 70.0567C98.214 70.2567 99.073 70.0187 99.714 69.2967" stroke="black" stroke-width="0.75" stroke-linecap="round" stroke-linejoin="round"/>
<path d="M68.8818 76.2503C73.469 76.4435 77.9813 75.0401 81.6498 72.2793" stroke="black" stroke-width="0.75" stroke-linecap="round" stroke-linejoin="round"/>
<path d="M93.1831 71.4434L95.2161 67.7764" stroke="black" stroke-width="0.75" stroke-linecap="round" stroke-linejoin="round"/>
<path d="M94.0761 39.2C92.8221 41.024 90.5231 40.226 87.3501 37.167" stroke="black" stroke-width="0.75" stroke-linecap="round" stroke-linejoin="round"/>
<path d="M73.7241 99.3569L88.4901 82.9199L72.2261 109.406" stroke="black" stroke-width="0.75" stroke-linecap="round" stroke-linejoin="round"/>
<path d="M50.4899 108.778C51.5624 109.741 52.8141 110.484 54.1736 110.963C55.5331 111.442 56.9737 111.649 58.4131 111.571C59.8526 111.494 61.2626 111.133 62.5626 110.511C63.8627 109.888 65.0273 109.015 65.9899 107.942L73.7199 99.3563L70.6639 119.756L58.0479 133.816C61.2134 139.374 66.0924 143.759 71.9559 146.316L85.3129 131.439C87.2902 129.24 88.6877 126.582 89.3789 123.706C92.2869 111.506 91.2979 89.9623 93.1789 71.4373C85.6169 70.0313 82.8239 68.3213 77.0669 63.7803C73.3469 66.4993 65.0439 68.5173 56.6999 89.2653L44.2579 78.0743C38.5179 80.9949 34.0686 85.9452 31.7749 91.9633L50.4899 108.778Z" stroke="black" stroke-width="0.75" stroke-linecap="round" stroke-linejoin="round"/>
<path d="M95.0003 33.319C94.4973 33.1314 94.0063 32.913 93.5303 32.665L94.4953 34.765" stroke="black" stroke-width="0.75" stroke-linecap="round" stroke-linejoin="round"/>
<path d="M95.7859 47.4082C94.3859 43.3682 93.2239 37.1912 94.9949 33.3182C102.189 35.9572 101.58 26.6302 99.4719 21.7012M77.0659 63.7672C77.8744 61.2265 78.4219 58.61 78.6999 55.9582C79.1839 51.8784 80.3679 47.9126 82.1999 44.2352C83.9899 40.4742 88.0999 37.0062 90.1999 33.0062C90.8292 31.9073 91.2289 30.6921 91.3749 29.4342C91.5868 28.1125 91.3397 26.7581 90.6749 25.5962C87.8439 24.6652 89.1229 21.3322 91.0359 22.6322C91.9509 23.2552 92.3089 23.2212 92.3659 22.6132C92.4174 22.2935 92.4815 21.9893 92.5571 21.7012" stroke="black" stroke-width="0.75" stroke-linecap="round" stroke-linejoin="round"/>
<path d="M62.251 129.146C65.6875 134.5 70.5784 138.764 76.351 141.439" stroke="black" stroke-width="0.75" stroke-linecap="round" stroke-linejoin="round"/>
<path d="M35.917 95.6307C39.109 89.8307 43.099 85.0667 48.343 81.7607" stroke="black" stroke-width="0.75" stroke-linecap="round" stroke-linejoin="round"/>
<path d="M60.3133 137.26C56.2993 142.16 52.7083 146.006 48.7993 150.085C47.7543 156.26 48.2483 170.434 50.2433 177.027C55.5433 168.211 57.4633 162.606 60.1433 153.527L68.2753 144.483" stroke="black" stroke-width="0.75" stroke-linecap="round" stroke-linejoin="round"/>
<path d="M25.1821 80.9244C26.9757 78.0445 29.1772 75.4397 31.7181 73.1914" stroke="black" stroke-width="0.75" stroke-linecap="round" stroke-linejoin="round"/>
<path d="M145.775 72.888C147.846 73.097 152.06 74.388 151.285 73.496C150.722 72.9713 150.073 72.5472 149.366 72.242C146.686 70.932 144.122 70.513 141.272 69.734L119.172 64.376L109.95 56.71" stroke="black" stroke-width="0.75" stroke-linecap="round" stroke-linejoin="round"/>
<path d="M75.0951 75.5098L58.0521 100.552L41.5791 87.4988" stroke="black" stroke-width="0.75" stroke-linecap="round" stroke-linejoin="round"/>
<path d="M121.683 18.4904C121.811 19.2607 121.707 20.0516 121.385 20.7631C121.064 21.4745 120.538 22.0746 119.875 22.4874C119.213 22.9002 118.442 23.1072 117.662 23.0822C116.881 23.0572 116.126 22.8014 115.491 22.347C114.856 21.8927 114.37 21.2602 114.094 20.5296C113.819 19.7991 113.766 19.0032 113.943 18.2426C114.119 17.4821 114.518 16.791 115.087 16.2568C115.657 15.7226 116.372 15.3692 117.142 15.2414C118.175 15.0706 119.234 15.3169 120.085 15.9261C120.936 16.5353 121.511 17.4576 121.683 18.4904Z" stroke="black" stroke-width="0.75" stroke-linecap="round" stroke-linejoin="round"/>
<path d="M132.437 16.7043C132.565 17.4746 132.461 18.2655 132.139 18.977C131.818 19.6884 131.292 20.2885 130.629 20.7013C129.967 21.1141 129.196 21.3211 128.416 21.2961C127.635 21.2711 126.88 21.0152 126.245 20.5609C125.61 20.1066 125.124 19.4741 124.848 18.7435C124.573 18.013 124.52 17.2171 124.697 16.4565C124.873 15.696 125.272 15.0049 125.841 14.4707C126.411 13.9365 127.126 13.5831 127.896 13.4553C128.929 13.2845 129.987 13.5307 130.839 14.14C131.69 14.7492 132.265 15.6715 132.437 16.7043Z" stroke="black" stroke-width="0.75" stroke-linecap="round" stroke-linejoin="round"/>
<path d="M143.381 14.8802C143.509 15.6505 143.405 16.4414 143.083 17.1529C142.762 17.8643 142.236 18.4644 141.573 18.8772C140.911 19.29 140.14 19.4969 139.36 19.472C138.579 19.447 137.824 19.1911 137.189 18.7368C136.554 18.2824 136.068 17.65 135.792 16.9194C135.517 16.1889 135.464 15.393 135.641 14.6324C135.817 13.8718 136.216 13.1808 136.785 12.6466C137.355 12.1124 138.07 11.759 138.84 11.6312C139.873 11.4601 140.932 11.7063 141.783 12.3155C142.635 12.9248 143.21 13.8473 143.381 14.8802Z" stroke="black" stroke-width="0.75" stroke-linecap="round" stroke-linejoin="round"/>
<path d="M14.2932 0.972656L7.03516 11.1947" stroke="black" stroke-width="0.75" stroke-linecap="round" stroke-linejoin="round"/>
<path d="M15.7753 9.71308L5.57227 2.45508" stroke="black" stroke-width="0.75" stroke-linecap="round" stroke-linejoin="round"/>
<path d="M9.47 127.154L9.242 127.23L16.253 133.443L7 143.608L11.959 148.035L21.212 137.851L28.203 144.065L33.429 119.46L9.47 127.154Z" stroke="black" stroke-width="0.75" stroke-linecap="round" stroke-linejoin="round"/>
<path d="M163.83 125.175L149.124 120.615L161.493 112.027" stroke="black" stroke-width="0.75" stroke-linecap="round" stroke-linejoin="round"/>
<path d="M175.914 123.237L188.188 114.155L173.577 110.07" stroke="black" stroke-width="0.75" stroke-linecap="round" stroke-linejoin="round"/>
<path d="M171.316 104.655L165.939 130.837" stroke="black" stroke-width="0.75" stroke-linecap="round" stroke-linejoin="round"/>
<path d="M12.3613 80.1172L22.2178 140.889C22.57 142.962 23.3272 144.945 24.4461 146.724C25.5651 148.504 27.0238 150.046 28.7389 151.262C30.454 152.477 32.3919 153.343 34.4418 153.81C36.4918 154.276 38.6135 154.334 40.6858 153.98L48.5881 152.651" stroke="black" stroke-width="0.75" stroke-linecap="round" stroke-linejoin="round"/>
<path d="M166.087 79.4541L171.957 115.638C172.311 117.71 172.253 119.832 171.787 121.882C171.32 123.932 170.454 125.87 169.239 127.585C168.023 129.3 166.481 130.759 164.701 131.878C162.921 132.997 160.939 133.754 158.866 134.106L63.1768 150.198" stroke="black" stroke-width="0.75" stroke-linecap="round" stroke-linejoin="round"/>
<path d="M69.2449 16.4766L19.482 24.837C17.4094 25.1893 15.4265 25.9465 13.6467 27.0654C11.8669 28.1843 10.3251 29.643 9.10935 31.3582C7.89365 33.0733 7.02775 35.0112 6.56135 37.0611C6.09495 39.111 6.03705 41.2328 6.39105 43.305L11.2654 73.3588" stroke="black" stroke-width="0.75" stroke-linecap="round" stroke-linejoin="round"/>
<path d="M97.2109 11.7775L137.662 4.98138C139.734 4.62738 141.856 4.68528 143.906 5.15168C145.956 5.61808 147.894 6.48398 149.609 7.69968C151.324 8.91548 152.783 10.4573 153.902 12.2371C155.021 14.0169 155.778 15.9998 156.13 18.0724L163.631 64.3149" stroke="black" stroke-width="0.75" stroke-linecap="round" stroke-linejoin="round"/>
<path d="M52.6182 146.057C54.711 148.932 57.2512 151.453 60.1422 153.524" stroke="black" stroke-width="0.75" stroke-linecap="round" stroke-linejoin="round"/>
</svg>
