<svg xmlns="http://www.w3.org/2000/svg" xmlns:xlink="http://www.w3.org/1999/xlink" width="189" height="178" fill="none" xmlns:v="https://vecta.io/nano"><path d="M77.071 63.806c-2.907 2.432-11.913 4.142-20.368 25.479L44.258 78.094c-5.744 2.915-10.195 7.867-12.483 13.889L50.49 108.8a10.99 10.99 0 0 0 7.923 2.786c2.906-.156 5.631-1.459 7.577-3.622l7.755-8.633-3.081 20.432-12.616 14.06a29.64 29.64 0 0 0 13.908 12.5l13.357-14.858a17.78 17.78 0 0 0 4.066-7.733c2.907-12.2 1.919-33.725 3.8-52.269-7.539-1.406-10.332-3.116-16.108-7.657z" fill="#e9e2d9"/><g fill="#e9e9e9"><path d="M180.036 64.661l-21.66 22.857 8.588-37.81 21.66-22.857-8.588 37.81zm-68.67-8.379c-.285-.19-.779-.019-1.425.437l1.5 1.235c.248-.874.248-1.482-.075-1.672zM97.952 67.967c-.4 1.026-.347 1.888-.038 2.09s1.2 0 1.8-.779l-1.762-1.311zm8.648-10.849c-.285-.19-.779-.019-1.425.437l1.5 1.235c.245-.855.225-1.463-.075-1.672zm-44.444 72.028l-4.2 4.674a29.64 29.64 0 0 0 13.908 12.5l4.389-4.883a33.48 33.48 0 0 1-14.097-12.291zm24.168-68.913l7.03 10.925 1.862-3.382-8.892-7.543zm7.201-27.549l.969 2.09.532-1.425-1.501-.665zM88.49 82.92L73.727 99.336l-1.501 10.07L88.49 82.92zm-35.872 63.137l-3.819 4.028c-1.045 6.175-.551 20.349 1.444 26.942 5.3-8.816 7.22-14.4 9.9-23.484a33.78 33.78 0 0 1-7.525-7.486zM31.7 73.191l-3.344-3.534C17.6 71.177 5.764 74.768.748 77.143a55.55 55.55 0 0 0 24 3.42l.418.38a35.27 35.27 0 0 1 6.534-7.752zm16.662 8.493l-4.1-3.7a25.96 25.96 0 0 0-12.483 13.889l4.161 3.743a36.91 36.91 0 0 1 12.422-13.932z"/><use xlink:href="#B"/><path d="M143.381 14.881a3.95 3.95 0 0 0-1.015-2.055 3.96 3.96 0 0 0-1.986-1.145 3.94 3.94 0 0 0-2.287.152 3.95 3.95 0 0 0-1.958 5.782 3.95 3.95 0 0 0 3.997 1.808c1.032-.173 1.954-.748 2.563-1.599s.856-1.909.686-2.942zM25.429 103.46l-8.911 2.868 3.682 21.737 5.229-24.605zM141.12 75.4l-.006-.017.006.017z"/><use xlink:href="#C"/></g><g stroke="#000" stroke-width=".75" stroke-linejoin="round"><path d="M180.036 64.661l-21.66 22.857 8.588-37.81 21.66-22.857-8.588 37.81z"/><use xlink:href="#C"/><use xlink:href="#B"/><g stroke-linecap="round"><path d="M100.156 32.076l56.715-9.538M7.094 47.693l82.65-13.87m4.636 7.183l17.005 15.276m.076 1.672c.228-.855.229-1.465-.076-1.672-.284-.192-.8-.022-1.444.437a15.75 15.75 0 0 0-2.6 2.6M40.4 80.469c-6.422-5.111-6.954-5.263-12.046-10.83C17.6 71.159 5.764 74.75.748 77.125a55.63 55.63 0 0 0 24.016 3.42l8.721 7.847m55.214-47.348l17.917 16.074m-8.702 12.938l-11.59-9.823 7.019 10.922m45.934 1.044c.7.152 7.11 2.392 8.455 4.788.9 1.595-3.648-1.577-6.593-1.672m-2.489-1.021c1.786.646 6.019 2.434 7.125 4.446 1 1.826-2.6-1.52-6.916-1.653m-.703-.4c4.522 2.641 7.014 5.086.874 2.432-3.172-1.371-26.3-2.071-26.3-2.071a11.61 11.61 0 0 1-5.62-2.149l-9.158-6.954m7.22-10.39l9.31 8.265L139.6 70.7c1.786.51 6.063 1.594 7.315 3.021.666.759-3-.551-5.225-.665"/><path d="M106.692 58.79c.228-.855.229-1.465-.076-1.672-.284-.192-.8-.021-1.444.437-2.629 1.871-6.536 7.671-7.353 10.849-.2.78-.164 1.483.095 1.653.3.2 1.159-.038 1.8-.76M68.882 76.25c4.587.193 9.1-1.21 12.768-3.971m11.533-.836l2.033-3.667M94.076 39.2c-1.254 1.824-3.553 1.026-6.726-2.033m-13.626 62.19L88.49 82.92l-16.264 26.486"/></g><path d="M50.49 108.778a10.97 10.97 0 0 0 7.923 2.793c1.44-.077 2.849-.438 4.15-1.06s2.465-1.496 3.427-2.569l7.73-8.586-3.056 20.4-12.616 14.06a29.64 29.64 0 0 0 13.908 12.5l13.357-14.877a17.78 17.78 0 0 0 4.066-7.733c2.908-12.2 1.919-33.744 3.8-52.269-7.562-1.406-10.355-3.116-16.112-7.657-3.72 2.719-12.023 4.737-20.367 25.485L44.258 78.074c-5.74 2.921-10.189 7.871-12.483 13.889l18.715 16.815z"/><path d="M95 33.319c-.503-.188-.994-.406-1.47-.654l.965 2.1m1.291 12.643c-1.4-4.04-2.562-10.217-.791-14.09 7.194 2.639 6.585-6.688 4.477-11.617M77.066 63.767c.808-2.541 1.356-5.157 1.634-7.809a35.73 35.73 0 0 1 3.5-11.723c1.79-3.761 5.9-7.229 8-11.229a9.36 9.36 0 0 0 1.175-3.572 5.86 5.86 0 0 0-.7-3.838c-2.831-.931-1.552-4.264.361-2.964.915.623 1.273.589 1.33-.019.052-.32.116-.624.191-.912M62.251 129.146a33.48 33.48 0 0 0 14.1 12.293M35.917 95.631c3.192-5.8 7.182-10.564 12.426-13.87m11.97 55.499c-4.014 4.9-7.605 8.746-11.514 12.825-1.045 6.175-.551 20.349 1.444 26.942 5.3-8.816 7.22-14.421 9.9-23.5l8.132-9.044M25.182 80.924a35.11 35.11 0 0 1 6.536-7.733m114.057-.303c2.071.209 6.285 1.5 5.51.608a6.72 6.72 0 0 0-1.919-1.254c-2.68-1.31-5.244-1.729-8.094-2.508l-22.1-5.358-9.222-7.666m-34.855 18.8l-17.043 25.042-16.473-13.053" stroke-linecap="round"/><path d="M121.683 18.49c.128.77.024 1.561-.298 2.273a3.94 3.94 0 0 1-1.51 1.724c-.662.413-1.433.62-2.213.595a3.95 3.95 0 0 1-3.719-4.839c.176-.761.575-1.452 1.144-1.986a3.95 3.95 0 0 1 6.596 2.233zm10.754-1.786c.128.77.024 1.561-.298 2.273a3.94 3.94 0 0 1-1.51 1.724c-.662.413-1.433.62-2.213.595a3.95 3.95 0 0 1-3.719-4.839c.176-.76.575-1.452 1.144-1.986a3.95 3.95 0 0 1 6.596 2.233zm10.944-1.824c.128.77.024 1.561-.298 2.273a3.94 3.94 0 0 1-1.51 1.724c-.662.413-1.433.62-2.213.595a3.95 3.95 0 0 1-3.719-4.839c.176-.761.575-1.452 1.144-1.986a3.95 3.95 0 0 1 4.998-.331c.852.609 1.427 1.532 1.598 2.565z"/><g stroke-linecap="round"><path d="M14.293.973L7.035 11.195"/><path d="M15.775 9.713L5.572 2.455"/></g><path d="M9.47 127.154l-.228.076 7.011 6.213L7 143.608l4.959 4.427 9.253-10.184 6.991 6.214 5.226-24.605-23.959 7.694z"/><g stroke-linecap="round"><path d="M163.83 125.175l-14.706-4.56 12.369-8.588m14.421 11.21l12.274-9.082-14.611-4.085m-2.261-5.415l-5.377 26.182M12.361 80.117l9.857 60.772a15.99 15.99 0 0 0 2.228 5.835c1.119 1.78 2.578 3.322 4.293 4.538s3.653 2.081 5.703 2.548a16.01 16.01 0 0 0 6.244.17l7.902-1.329"/><path d="M166.087 79.454l5.87 36.184a16.01 16.01 0 0 1-.17 6.244 16.02 16.02 0 0 1-2.548 5.703c-1.216 1.715-2.758 3.174-4.538 4.293a15.99 15.99 0 0 1-5.835 2.228l-95.689 16.092m6.068-133.721l-49.763 8.36A16 16 0 0 0 6.391 43.305l4.874 30.054m85.946-61.581l40.451-6.796A16 16 0 0 1 149.609 7.7c1.715 1.216 3.174 2.758 4.293 4.537a15.99 15.99 0 0 1 2.228 5.835l7.501 46.242M52.618 146.057c2.093 2.875 4.633 5.396 7.524 7.467"/></g></g><defs ><path id="B" d="M101.885 20.315c.081-.46-.005-.934-.242-1.337a1.97 1.97 0 0 0-1.05-.863 1.99 1.99 0 0 0 .579-.978 1.98 1.98 0 0 0-.052-1.135 1.99 1.99 0 0 0-.665-.921c-.307-.236-.676-.377-1.062-.405a2 2 0 0 0 .177-1.075c-.041-.368-.184-.717-.412-1.008a2 2 0 0 0-1.965-.729 1.98 1.98 0 0 0-.167-1.081c-.156-.338-.403-.624-.714-.828a1.99 1.99 0 0 0-1.044-.325c-.372-.008-.738.087-1.058.277a2 2 0 0 0-1.479-1.587 2 2 0 0 0-2.055.694 2.09 2.09 0 0 0-1.971-1.152 2.09 2.09 0 0 0-1.848 1.342 1.99 1.99 0 0 0-1.817-.584c-.328.063-.634.207-.891.42a1.99 1.99 0 0 0-.58.796 2.5 2.5 0 0 0-1.286-2.36 2.5 2.5 0 0 0-2.683.17 2.6 2.6 0 0 0-2.518-1.563 2.6 2.6 0 0 0-2.346 1.81c-.435-.263-.94-.386-1.447-.354a2.49 2.49 0 0 0-1.39.537c-.397.317-.689.748-.834 1.235s-.138 1.007.021 1.489a2.49 2.49 0 0 0-2.142 1.897A2.49 2.49 0 0 0 70 15.356a2.49 2.49 0 0 0-.779 2.772 2.49 2.49 0 0 0 2.356 1.655c-.103.495-.053 1.011.144 1.477s.532.861.96 1.131.928.404 1.433.383.993-.196 1.396-.502c.16.41.428.768.777 1.037s.764.436 1.201.486a1.99 1.99 0 0 0-.047.872c.049.291.162.567.331.809a1.99 1.99 0 0 0 1.481.844 1.99 1.99 0 0 0 .242 2.089 1.99 1.99 0 0 0 1.981.704 1.99 1.99 0 0 0 .896 1.904 1.99 1.99 0 0 0 2.104.034c.068.379.244.73.507 1.012a1.99 1.99 0 0 0 .976.572c.374.093.767.075 1.13-.051s.684-.355.92-.658c.24.344.55.632.911.845s.763.346 1.179.39c.636-1.15 1.067-2.402 1.273-3.7.211-1.322-.036-2.676-.7-3.838-2.831-.931-1.558-4.256.361-2.964.912.627 1.258.587 1.33-.019a.97.97 0 0 1 .536-.838 2 2 0 0 0 1.9 1.141c.394-.018.774-.153 1.091-.386s.56-.556.695-.926a2 2 0 0 0 1.426.626 2 2 0 0 0 1.443-.588 17.76 17.76 0 0 1 1.064 3.439 2 2 0 0 0 .703-.665 1.99 1.99 0 0 0 .309-.917c.026-.326-.028-.654-.158-.955a2 2 0 0 0-.588-.769c.286-.145.534-.355.725-.613a2.06 2.06 0 0 0 .375-.872z"/><path id="C" d="M149.176 65.876l-5.111 4.693a22.93 22.93 0 0 1 5.187 1.767c.7.298 1.343.716 1.9 1.235.779.893-3.4-.38-5.453-.608h-.019c.415.219.793.501 1.121.836.674.771-4.481-.974-4.94-.646 1.976.893 5.035 2.584 5.776 3.9.874 1.577-3.61-1.559-6.517-1.654 1.843.855 3.857 2.053 4.579 3.383.988 1.8-2.584-1.5-6.84-1.634h-.019c4.066 2.47 5.966 4.5.19 1.995a10.52 10.52 0 0 0-3.344-.874l-11.609 10.616 34.276-1.33 5.035-22.192-14.212.513z"/></defs></svg>